<svg width="15" height="15" viewBox="0 0 15 15" fill="none" xmlns="http://www.w3.org/2000/svg">
<mask id="mask0_105_13" style="mask-type:alpha" maskUnits="userSpaceOnUse" x="0" y="0" width="15" height="15">
<rect width="15" height="15" fill="#D9D9D9"/>
</mask>
<g mask="url(#mask0_105_13)">
<path d="M9.67062 10.3294L10.3294 9.67063L7.96875 7.31V4.375H7.03125V7.68984L9.67062 10.3294ZM7.50109 13.4375C6.67984 13.4375 5.90792 13.2817 5.18531 12.97C4.46271 12.6583 3.83417 12.2354 3.29969 11.7011C2.76521 11.1668 2.34203 10.5385 2.03016 9.81625C1.71839 9.09396 1.5625 8.32224 1.5625 7.50109C1.5625 6.67984 1.71833 5.90792 2.03 5.18531C2.34167 4.46271 2.76464 3.83417 3.29891 3.29969C3.83318 2.76521 4.46146 2.34203 5.18375 2.03016C5.90604 1.71839 6.67776 1.5625 7.49891 1.5625C8.32016 1.5625 9.09208 1.71833 9.81469 2.03C10.5373 2.34167 11.1658 2.76464 11.7003 3.29891C12.2348 3.83318 12.658 4.46146 12.9698 5.18375C13.2816 5.90604 13.4375 6.67776 13.4375 7.49891C13.4375 8.32016 13.2817 9.09208 12.97 9.81469C12.6583 10.5373 12.2354 11.1658 11.7011 11.7003C11.1668 12.2348 10.5385 12.658 9.81625 12.9698C9.09396 13.2816 8.32224 13.4375 7.50109 13.4375ZM7.5 12.5C8.88542 12.5 10.0651 12.013 11.0391 11.0391C12.013 10.0651 12.5 8.88542 12.5 7.5C12.5 6.11458 12.013 4.9349 11.0391 3.96094C10.0651 2.98698 8.88542 2.5 7.5 2.5C6.11458 2.5 4.9349 2.98698 3.96094 3.96094C2.98698 4.9349 2.5 6.11458 2.5 7.5C2.5 8.88542 2.98698 10.0651 3.96094 11.0391C4.9349 12.013 6.11458 12.5 7.5 12.5Z" fill="#1C1B1F"/>
</g>
</svg>
