<svg width="19" height="19" viewBox="0 0 19 19" fill="none" xmlns="http://www.w3.org/2000/svg">
<mask id="mask0_116_58" style="mask-type:alpha" maskUnits="userSpaceOnUse" x="0" y="0" width="19" height="19">
<rect x="0.786133" y="0.293945" width="18" height="18" fill="#D9D9D9"/>
</mask>
<g mask="url(#mask0_116_58)">
<path d="M9.77788 13.5054C9.99201 13.5054 10.1729 13.4315 10.3205 13.2838C10.4681 13.1359 10.5419 12.9548 10.5419 12.7406C10.5419 12.5264 10.468 12.3456 10.3201 12.1979C10.1723 12.0504 9.99126 11.9767 9.77713 11.9767C9.56301 11.9767 9.38213 12.0506 9.23451 12.1985C9.08688 12.3464 9.01307 12.5274 9.01307 12.7415C9.01307 12.9556 9.08701 13.1365 9.23488 13.2841C9.38276 13.4316 9.56376 13.5054 9.77788 13.5054ZM9.2467 10.8198H10.3025C10.3121 10.4507 10.3662 10.1558 10.4647 9.93501C10.5633 9.71438 10.8025 9.42188 11.1823 9.05751C11.5121 8.72763 11.7648 8.42301 11.9401 8.14363C12.1156 7.86438 12.2034 7.53457 12.2034 7.1542C12.2034 6.50857 11.9714 6.00426 11.5076 5.64126C11.0436 5.27838 10.4948 5.09694 9.86113 5.09694C9.23513 5.09694 8.71713 5.26401 8.30713 5.59813C7.89701 5.93226 7.60445 6.32576 7.42945 6.77863L8.39282 7.16507C8.4842 6.91607 8.64045 6.67351 8.86157 6.43738C9.0827 6.20138 9.41107 6.08338 9.8467 6.08338C10.2899 6.08338 10.6176 6.20476 10.8296 6.44751C11.0417 6.69038 11.1478 6.95745 11.1478 7.2487C11.1478 7.50357 11.0751 7.73676 10.9299 7.94826C10.7848 8.15976 10.5997 8.36407 10.3747 8.5612C9.88232 9.00545 9.57126 9.35982 9.44151 9.62432C9.31163 9.8887 9.2467 10.2872 9.2467 10.8198ZM9.78745 16.4189C8.80195 16.4189 7.87563 16.2319 7.00851 15.8579C6.14138 15.4839 5.38713 14.9764 4.74576 14.3353C4.10438 13.6941 3.59657 12.9402 3.22232 12.0734C2.8482 11.2067 2.66113 10.2806 2.66113 9.29526C2.66113 8.30976 2.84813 7.38345 3.22213 6.51632C3.59613 5.6492 4.1037 4.89495 4.74482 4.25357C5.38595 3.6122 6.13988 3.10438 7.00663 2.73013C7.87338 2.35601 8.79945 2.16895 9.78482 2.16895C10.7703 2.16895 11.6966 2.35595 12.5638 2.72995C13.4309 3.10395 14.1851 3.61151 14.8265 4.25263C15.4679 4.89376 15.9757 5.6477 16.3499 6.51445C16.7241 7.3812 16.9111 8.30726 16.9111 9.29263C16.9111 10.2781 16.7241 11.2044 16.3501 12.0716C15.9761 12.9387 15.4686 13.6929 14.8274 14.3343C14.1863 14.9757 13.4324 15.4835 12.5656 15.8578C11.6989 16.2319 10.7728 16.4189 9.78745 16.4189ZM9.78613 15.2939C11.4611 15.2939 12.8799 14.7127 14.0424 13.5502C15.2049 12.3877 15.7861 10.9689 15.7861 9.29395C15.7861 7.61895 15.2049 6.2002 14.0424 5.0377C12.8799 3.8752 11.4611 3.29395 9.78613 3.29395C8.11113 3.29395 6.69238 3.8752 5.52988 5.0377C4.36738 6.2002 3.78613 7.61895 3.78613 9.29395C3.78613 10.9689 4.36738 12.3877 5.52988 13.5502C6.69238 14.7127 8.11113 15.2939 9.78613 15.2939Z" fill="#1C1B1F"/>
</g>
</svg>
