<svg width="12" height="12" viewBox="0 0 12 12" fill="none" xmlns="http://www.w3.org/2000/svg">
<g clip-path="url(#clip0_127_75)">
<path fill-rule="evenodd" clip-rule="evenodd" d="M6.4544 0.790515C6.41438 0.703783 6.35036 0.63033 6.2699 0.578845C6.18944 0.527361 6.09592 0.5 6.0004 0.5C5.90488 0.5 5.81136 0.527361 5.7309 0.578845C5.65045 0.63033 5.58642 0.703783 5.5464 0.790515L4.1114 3.90052L0.710902 4.30401C0.616027 4.31522 0.526347 4.35337 0.452476 4.41394C0.378605 4.47452 0.323636 4.555 0.294073 4.64584C0.26451 4.73669 0.261592 4.8341 0.285664 4.92655C0.309736 5.019 0.35979 5.10262 0.429902 5.16751L2.9449 7.49251L2.2774 10.8525C2.25886 10.9462 2.26753 11.0432 2.30237 11.1321C2.33722 11.221 2.39679 11.298 2.47405 11.3541C2.5513 11.4103 2.643 11.4431 2.73831 11.4487C2.83363 11.4544 2.92856 11.4326 3.0119 11.386L6.0004 9.71302L8.9889 11.386C9.07229 11.4328 9.16735 11.4547 9.26281 11.4491C9.35827 11.4435 9.45012 11.4107 9.52748 11.3545C9.60484 11.2983 9.66446 11.2211 9.69928 11.132C9.73409 11.043 9.74264 10.9458 9.7239 10.852L9.0564 7.49301L11.5709 5.16751C11.641 5.10262 11.6911 5.019 11.7151 4.92655C11.7392 4.8341 11.7363 4.73669 11.7067 4.64584C11.6772 4.555 11.6222 4.47452 11.5483 4.41394C11.4745 4.35337 11.3848 4.31522 11.2899 4.30401L7.8889 3.90002L6.4544 0.790515Z" fill="#FF472D"/>
</g>
<defs>
<clipPath id="clip0_127_75">
<rect width="12" height="12" fill="white"/>
</clipPath>
</defs>
</svg>
