<svg width="21" height="20" viewBox="0 0 21 20" fill="none" xmlns="http://www.w3.org/2000/svg">
<path d="M11.4802 14.1858L7.80605 12.2775C7.32638 12.7659 6.70354 13.1056 6.01849 13.2524C5.33345 13.3993 4.61786 13.3465 3.96474 13.1009C3.31161 12.8553 2.75115 12.4283 2.35618 11.8754C1.96121 11.3225 1.75 10.6692 1.75 10.0004C1.75 9.33168 1.96121 8.6784 2.35618 8.12547C2.75115 7.57255 3.31161 7.14555 3.96474 6.89998C4.61786 6.6544 5.33345 6.6016 6.01849 6.74844C6.70354 6.89527 7.32638 7.23496 7.80605 7.72334L11.4811 5.81501C11.2727 5.02831 11.3728 4.19626 11.7626 3.47482C12.1523 2.75337 12.805 2.19208 13.5982 1.89615C14.3914 1.60022 15.2707 1.58997 16.0713 1.86732C16.8718 2.14468 17.5387 2.69059 17.9469 3.40273C18.3551 4.11487 18.4765 4.94434 18.2884 5.73566C18.1004 6.52698 17.6157 7.22581 16.9254 7.70115C16.235 8.1765 15.3863 8.39572 14.5383 8.31773C13.6904 8.23974 12.9014 7.86989 12.3193 7.27751L8.6443 9.18584C8.78565 9.72027 8.78565 10.2797 8.6443 10.8142L12.3193 12.7225C12.9017 12.1304 13.6909 11.7609 14.5388 11.6833C15.3868 11.6058 16.2354 11.8254 16.9255 12.301C17.6156 12.7766 18.0999 13.4757 18.2876 14.2671C18.4753 15.0584 18.3534 15.8878 17.9449 16.5998C17.5365 17.3117 16.8693 17.8574 16.0687 18.1344C15.268 18.4114 14.3887 18.4008 13.5956 18.1046C12.8026 17.8084 12.1502 17.2468 11.7607 16.5253C11.3713 15.8037 11.2715 14.9716 11.4802 14.185M5.25018 11.6667C5.71431 11.6667 6.15943 11.4911 6.48762 11.1785C6.81581 10.866 7.00018 10.442 7.00018 10C7.00018 9.55798 6.81581 9.13406 6.48762 8.8215C6.15943 8.50894 5.71431 8.33334 5.25018 8.33334C4.78605 8.33334 4.34093 8.50894 4.01274 8.8215C3.68455 9.13406 3.50018 9.55798 3.50018 10C3.50018 10.442 3.68455 10.866 4.01274 11.1785C4.34093 11.4911 4.78605 11.6667 5.25018 11.6667ZM14.8752 6.66668C15.3393 6.66668 15.7844 6.49108 16.1126 6.17852C16.4408 5.86596 16.6252 5.44204 16.6252 5.00001C16.6252 4.55798 16.4408 4.13406 16.1126 3.8215C15.7844 3.50894 15.3393 3.33334 14.8752 3.33334C14.4111 3.33334 13.9659 3.50894 13.6377 3.8215C13.3096 4.13406 13.1252 4.55798 13.1252 5.00001C13.1252 5.44204 13.3096 5.86596 13.6377 6.17852C13.9659 6.49108 14.4111 6.66668 14.8752 6.66668ZM14.8752 16.6667C15.3393 16.6667 15.7844 16.4911 16.1126 16.1785C16.4408 15.866 16.6252 15.442 16.6252 15C16.6252 14.558 16.4408 14.1341 16.1126 13.8215C15.7844 13.5089 15.3393 13.3333 14.8752 13.3333C14.4111 13.3333 13.9659 13.5089 13.6377 13.8215C13.3096 14.1341 13.1252 14.558 13.1252 15C13.1252 15.442 13.3096 15.866 13.6377 16.1785C13.9659 16.4911 14.4111 16.6667 14.8752 16.6667Z" fill="#999999"/>
</svg>
