<svg width="49" height="49" viewBox="0 0 49 49" fill="none" xmlns="http://www.w3.org/2000/svg">
<path d="M30.1 16.7197L32.5 19.1197L18.9 32.7197L16.5 30.3197L30.1 16.7197ZM8.5 8.71973H40.5C42.72 8.71973 44.5 10.4997 44.5 12.7197V20.7197C43.4391 20.7197 42.4217 21.1412 41.6716 21.8913C40.9214 22.6414 40.5 23.6589 40.5 24.7197C40.5 25.7806 40.9214 26.798 41.6716 27.5482C42.4217 28.2983 43.4391 28.7197 44.5 28.7197V36.7197C44.5 38.9397 42.72 40.7197 40.5 40.7197H8.5C7.43913 40.7197 6.42172 40.2983 5.67157 39.5482C4.92143 38.798 4.5 37.7806 4.5 36.7197V28.7197C6.72 28.7197 8.5 26.9397 8.5 24.7197C8.5 23.6589 8.07857 22.6414 7.32843 21.8913C6.57828 21.1412 5.56087 20.7197 4.5 20.7197V12.7197C4.5 11.6589 4.92143 10.6414 5.67157 9.8913C6.42172 9.14115 7.43913 8.71973 8.5 8.71973ZM8.5 12.7197V17.7997C9.71536 18.5005 10.7247 19.509 11.4265 20.7238C12.1283 21.9386 12.4978 23.3168 12.4978 24.7197C12.4978 26.1227 12.1283 27.5008 11.4265 28.7156C10.7247 29.9304 9.71536 30.9389 8.5 31.6397V36.7197H40.5V31.6397C39.2846 30.9389 38.2753 29.9304 37.5735 28.7156C36.8717 27.5008 36.5022 26.1227 36.5022 24.7197C36.5022 23.3168 36.8717 21.9386 37.5735 20.7238C38.2753 19.509 39.2846 18.5005 40.5 17.7997V12.7197H8.5ZM19.5 16.7197C21.16 16.7197 22.5 18.0597 22.5 19.7197C22.5 21.3797 21.16 22.7197 19.5 22.7197C17.84 22.7197 16.5 21.3797 16.5 19.7197C16.5 18.0597 17.84 16.7197 19.5 16.7197ZM29.5 26.7197C31.16 26.7197 32.5 28.0597 32.5 29.7197C32.5 31.3797 31.16 32.7197 29.5 32.7197C27.84 32.7197 26.5 31.3797 26.5 29.7197C26.5 28.0597 27.84 26.7197 29.5 26.7197Z" fill="white"/>
</svg>
