<svg width="48" height="48" viewBox="0 0 48 48" fill="none" xmlns="http://www.w3.org/2000/svg">
<path d="M32 4C26.48 4 22 8.48 22 14C22 19.52 26.48 24 32 24C37.52 24 42 19.52 42 14C42 8.48 37.52 4 32 4ZM32 20C28.68 20 26 17.32 26 14C26 10.68 28.68 8 32 8C35.32 8 38 10.68 38 14C38 17.32 35.32 20 32 20ZM38 32H34C34 29.6 32.5 27.44 30.26 26.6L17.94 22H2V44H14V41.12L28 45L44 40V38C44 34.68 41.32 32 38 32ZM10 40H6V26H10V40ZM27.94 40.82L14 37V26H17.22L28.86 30.34C29.54 30.6 30 31.26 30 32C30 32 26 31.9 25.4 31.7L20.64 30.12L19.38 33.92L24.14 35.5C25.16 35.84 26.22 36 27.3 36H38C38.78 36 39.48 36.48 39.8 37.14L27.94 40.82Z" fill="white"/>
</svg>
