<svg width="18" height="18" viewBox="0 0 18 18" fill="none" xmlns="http://www.w3.org/2000/svg">
<path d="M13.72 12.282C14.3916 11.3194 14.7512 10.1737 14.75 9C14.75 5.82425 12.1757 3.25 9 3.25C5.82425 3.25 3.25 5.82425 3.25 9C3.25 12.1757 5.82425 14.75 9 14.75C9.9395 14.75 10.8255 14.5232 11.6088 14.1237L12.8122 14.6368L14.2443 15.2475L13.9733 13.7145L13.72 12.282Z" fill="white"/>
<path d="M13.72 12.282C14.3916 11.3194 14.7512 10.1737 14.75 9C14.75 5.82425 12.1757 3.25 9 3.25C5.82425 3.25 3.25 5.82425 3.25 9C3.25 12.1757 5.82425 14.75 9 14.75C9.9395 14.75 10.8255 14.5232 11.6088 14.1237L12.8122 14.6368L14.2443 15.2475L13.9733 13.7145L13.72 12.282Z" stroke="#999999" stroke-width="0.5" stroke-miterlimit="10" stroke-linecap="round" stroke-linejoin="round"/>
</svg>
