<svg width="15" height="15" viewBox="0 0 15 15" fill="none" xmlns="http://www.w3.org/2000/svg">
<path d="M11.433 10.2347C11.9927 9.43255 12.2924 8.47777 12.2913 7.49967C12.2913 4.85322 10.1461 2.70801 7.49967 2.70801C4.85322 2.70801 2.70801 4.85322 2.70801 7.49967C2.70801 10.1461 4.85322 12.2913 7.49967 12.2913C8.28259 12.2913 9.02093 12.1024 9.67363 11.7695L10.6765 12.197L11.8699 12.7059L11.6441 11.4284L11.433 10.2347Z" fill="white"/>
<path d="M11.433 10.2347C11.9927 9.43255 12.2924 8.47777 12.2913 7.49967C12.2913 4.85322 10.1461 2.70801 7.49967 2.70801C4.85322 2.70801 2.70801 4.85322 2.70801 7.49967C2.70801 10.1461 4.85322 12.2913 7.49967 12.2913C8.28259 12.2913 9.02093 12.1024 9.67363 11.7695L10.6765 12.197L11.8699 12.7059L11.6441 11.4284L11.433 10.2347Z" stroke="#999999" stroke-width="2" stroke-miterlimit="10" stroke-linecap="round" stroke-linejoin="round"/>
</svg>
