<svg width="105" height="18" viewBox="0 0 105 18" fill="none" xmlns="http://www.w3.org/2000/svg">
<g clip-path="url(#clip0_4431_919)">
<path d="M64.4617 8.89552H66.4656V10.306H61.2023V15.9391H59.4306V10.306H54.2705V8.89552H62.8191C63.0799 7.46004 63.2009 6.00265 63.1803 4.54382H55.7755V3.11621H64.9433C64.9576 5.05325 64.7964 6.98757 64.4617 8.89552Z" fill="black"/>
<path d="M73.2877 12.4043H67.8008V4.01046H73.2877V12.4043ZM71.6193 5.35209H69.4692V11.011H71.6193V5.35209ZM77.2094 15.9132V9.1362H76.1172V15.3111H74.4487V2.62584H76.1172V7.70854H77.2094V2.38501H78.9294V15.9389L77.2094 15.9132Z" fill="black"/>
<path d="M80.4844 7.02053V5.61009H88.3106V7.02053H80.4844ZM84.4233 7.49353C86.3755 7.49353 87.6913 8.71478 87.6913 10.4176C87.6825 10.8284 87.5891 11.2329 87.4171 11.606C87.2451 11.9791 86.9981 12.3128 86.6915 12.5863C86.385 12.8598 86.0254 13.0673 85.6351 13.1957C85.2449 13.3242 84.8324 13.371 84.4233 13.3331C82.4796 13.3331 81.1552 12.1291 81.1552 10.4176C81.1642 10.0065 81.2575 9.60168 81.4294 9.22817C81.6013 8.85465 81.8481 8.52043 82.1546 8.24626C82.461 7.97209 82.8205 7.7638 83.2108 7.63431C83.601 7.50483 84.0137 7.45691 84.4233 7.49353ZM82.385 3.27086H86.5905V4.66408H82.4022L82.385 3.27086ZM84.4233 11.8711C84.6248 11.8927 84.8287 11.8701 85.0206 11.8049C85.2125 11.7396 85.3879 11.6333 85.5345 11.4932C85.6811 11.3532 85.7953 11.1828 85.8693 10.9941C85.9432 10.8053 85.9751 10.6027 85.9627 10.4004C85.9337 10.0131 85.7594 9.65107 85.4747 9.3869C85.19 9.12273 84.8159 8.97594 84.4276 8.97594C84.0392 8.97594 83.6652 9.12273 83.3805 9.3869C83.0958 9.65107 82.9215 10.0131 82.8924 10.4004C82.8848 10.6015 82.9195 10.8021 82.9943 10.9889C83.0691 11.1758 83.1823 11.3449 83.3266 11.4851C83.471 11.6254 83.6432 11.7338 83.8321 11.8032C84.021 11.8727 84.2224 11.9016 84.4233 11.8882V11.8711ZM91.1486 7.85473H93.0321V9.33399H91.1486V15.9217H89.3512V2.38501H91.1486V7.85473Z" fill="black"/>
<path d="M94.6928 13.4879L93.6006 12.1463C94.9862 11.54 96.1938 10.5897 97.109 9.38553C98.0241 8.18141 98.6164 6.76343 98.8295 5.26611H94.4262V3.78685H100.747C100.757 5.81056 100.194 7.79571 99.1223 9.51251C98.0508 11.2293 96.5151 12.6076 94.6928 13.4879ZM103.138 15.9389V2.38501H104.918V15.9389H103.138Z" fill="black"/>
<path d="M46.7799 4.8277L44.4493 10.0996L41.8692 4.8277H39.8482L43.5893 12.1465L42.0584 15.5866H44.0107L48.7494 4.8277H46.7799ZM38.7215 12.9807H36.8037V12.2325C36.1099 12.8403 35.2147 13.1683 34.2925 13.1527C33.168 13.1527 32.0895 12.706 31.2944 11.9108C30.4993 11.1157 30.0525 10.0373 30.0525 8.91279C30.0525 7.7883 30.4993 6.70988 31.2944 5.91474C32.0895 5.11961 33.168 4.6729 34.2925 4.6729C35.2147 4.65726 36.1099 4.98527 36.8037 5.59313V4.8363H38.7215V12.9807ZM37.0015 8.90418C36.963 8.41912 36.784 7.9558 36.4863 7.5709C36.1887 7.186 35.7852 6.8962 35.3254 6.73702C34.8656 6.57784 34.3694 6.55615 33.8974 6.67461C33.4255 6.79306 32.9983 7.04652 32.6682 7.40398C32.338 7.76143 32.1193 8.20738 32.0386 8.68724C31.958 9.16709 32.019 9.66004 32.2142 10.1058C32.4093 10.5515 32.7302 10.9307 33.1375 11.1969C33.5448 11.4631 34.0209 11.6048 34.5075 11.6047C34.8516 11.597 35.1906 11.5206 35.5048 11.3799C35.8189 11.2392 36.1016 11.0371 36.3365 10.7854C36.5713 10.5338 36.7534 10.2377 36.872 9.91464C36.9907 9.59156 37.0435 9.24798 37.0273 8.90418H37.0015ZM20.6611 15.5607H22.6564V12.2927C23.3399 12.859 24.2026 13.1638 25.0902 13.1527C26.2147 13.1527 27.2932 12.706 28.0883 11.9108C28.8834 11.1157 29.3301 10.0373 29.3301 8.91279C29.3301 7.7883 28.8834 6.70988 28.0883 5.91474C27.2932 5.11961 26.2147 4.6729 25.0902 4.6729C24.1679 4.65726 23.2728 4.98527 22.579 5.59313V4.8363H20.6611V15.5607ZM24.8838 6.21232C25.4271 6.16906 25.9708 6.29066 26.4438 6.56123C26.9169 6.83179 27.2974 7.23872 27.5355 7.7289C27.7737 8.21908 27.8585 8.76972 27.7788 9.30884C27.6991 9.84796 27.4587 10.3505 27.089 10.7509C26.7192 11.1512 26.2373 11.4307 25.7062 11.5529C25.1751 11.6751 24.6195 11.6343 24.112 11.4357C23.6045 11.2372 23.1686 10.8903 22.8614 10.4402C22.5541 9.99008 22.3898 9.45776 22.3898 8.91279C22.3736 8.5711 22.4256 8.22958 22.5426 7.90816C22.6597 7.58674 22.8395 7.29182 23.0716 7.04053C23.3037 6.78923 23.5834 6.58662 23.8945 6.44443C24.2056 6.30225 24.5419 6.22334 24.8838 6.21232Z" fill="black"/>
<path d="M17.1187 9.15342C17.1204 10.8007 16.6334 12.4114 15.7193 13.7818C14.8052 15.1522 13.5051 16.2205 11.9835 16.8517C10.462 17.4828 8.78741 17.6484 7.17172 17.3275C5.55603 17.0066 4.07187 16.2135 2.90708 15.0487C1.74229 13.8839 0.949244 12.3998 0.628296 10.7841C0.307349 9.16838 0.47294 7.49377 1.1041 5.97223C1.73527 4.45068 2.80363 3.15057 4.17399 2.23646C5.54434 1.32236 7.15508 0.83534 8.80234 0.837041C11.0073 0.839317 13.1213 1.71624 14.6804 3.27537C16.2395 4.83451 17.1165 6.94847 17.1187 9.15342ZM10.1956 5.24034V9.42863L7.2887 5.24034H4.88925V13.0923H7.4091V8.87821L10.316 13.0665H12.7068V5.24034H10.1956Z" fill="black"/>
</g>
<defs>
<clipPath id="clip0_4431_919">
<rect width="105" height="18" fill="white"/>
</clipPath>
</defs>
</svg>
