<svg width="49" height="49" viewBox="0 0 49 49" fill="none" xmlns="http://www.w3.org/2000/svg">
<path d="M41 18.7198C41.0017 15.9391 40.3006 13.2032 38.9618 10.7661C37.6231 8.32891 35.6902 6.26962 33.3426 4.77945C30.995 3.28928 28.3088 2.41657 25.5337 2.24237C22.7585 2.06818 19.9843 2.59815 17.4688 3.78306C14.9533 4.96798 12.778 6.7694 11.1451 9.02001C9.51208 11.2706 8.47436 13.8974 8.12829 16.6564C7.78222 19.4154 8.13903 22.2171 9.16556 24.8013C10.1921 27.3855 11.8551 29.6684 14 31.4379V45.7198C13.9998 45.9756 14.0651 46.2272 14.1895 46.4507C14.314 46.6742 14.4936 46.8621 14.7112 46.9967C14.9287 47.1312 15.1771 47.2078 15.4327 47.2193C15.6882 47.2308 15.9425 47.1767 16.1713 47.0623L24.5 42.9073L32.8306 47.0716C33.0395 47.1714 33.2685 47.222 33.5 47.2198C33.8978 47.2198 34.2794 47.0617 34.5607 46.7804C34.842 46.4991 35 46.1176 35 45.7198V31.4379C36.8767 29.8922 38.388 27.9502 39.4254 25.7513C40.4628 23.5524 41.0005 21.1511 41 18.7198ZM11 18.7198C11 16.0497 11.7918 13.4396 13.2752 11.2196C14.7586 8.9995 16.867 7.26917 19.3338 6.24739C21.8006 5.2256 24.515 4.95826 27.1337 5.47916C29.7525 6.00006 32.1579 7.28581 34.0459 9.17382C35.934 11.0618 37.2197 13.4673 37.7406 16.086C38.2615 18.7048 37.9942 21.4192 36.9724 23.886C35.9506 26.3528 34.2203 28.4612 32.0002 29.9446C29.7801 31.428 27.1701 32.2198 24.5 32.2198C20.9208 32.2158 17.4893 30.7922 14.9584 28.2613C12.4276 25.7304 11.004 22.299 11 18.7198ZM32 43.2935L25.1694 39.8791C24.961 39.7749 24.7312 39.7206 24.4981 39.7206C24.2651 39.7206 24.0353 39.7749 23.8269 39.8791L17 43.2935V33.4141C19.3219 34.6009 21.8924 35.2197 24.5 35.2197C27.1076 35.2197 29.6781 34.6009 32 33.4141V43.2935ZM24.5 29.2198C26.5767 29.2198 28.6068 28.6039 30.3335 27.4502C32.0602 26.2964 33.406 24.6566 34.2007 22.7379C34.9955 20.8193 35.2034 18.7081 34.7983 16.6713C34.3931 14.6345 33.3931 12.7636 31.9246 11.2951C30.4562 9.82669 28.5853 8.82666 26.5485 8.42151C24.5117 8.01637 22.4004 8.2243 20.4818 9.01902C18.5632 9.81374 16.9233 11.1596 15.7696 12.8863C14.6158 14.613 14 16.6431 14 18.7198C14.003 21.5036 15.1102 24.1726 17.0787 26.1411C19.0472 28.1096 21.7161 29.2168 24.5 29.2198ZM24.5 11.2198C25.9834 11.2198 27.4334 11.6596 28.6668 12.4837C29.9001 13.3078 30.8614 14.4792 31.4291 15.8496C31.9968 17.2201 32.1453 18.7281 31.8559 20.1829C31.5665 21.6378 30.8522 22.9742 29.8033 24.0231C28.7544 25.072 27.418 25.7863 25.9632 26.0756C24.5083 26.365 23.0003 26.2165 21.6299 25.6489C20.2594 25.0812 19.0881 24.1199 18.264 22.8865C17.4399 21.6532 17 20.2031 17 18.7198C17 16.7306 17.7902 14.823 19.1967 13.4165C20.6032 12.0099 22.5109 11.2198 24.5 11.2198Z" fill="white"/>
</svg>
