<svg width="18" height="18" viewBox="0 0 18 18" fill="none" xmlns="http://www.w3.org/2000/svg">
<path d="M15.9659 4.32C15.9395 4.28834 15.9065 4.26287 15.8692 4.24537C15.8319 4.22787 15.7912 4.21879 15.75 4.21875H4.17234L3.70266 1.63688C3.69082 1.57219 3.6567 1.51371 3.60621 1.47157C3.55573 1.42944 3.49208 1.40633 3.42633 1.40625H1.6875C1.61291 1.40625 1.54137 1.43588 1.48863 1.48863C1.43588 1.54137 1.40625 1.61291 1.40625 1.6875C1.40625 1.76209 1.43588 1.83363 1.48863 1.88637C1.54137 1.93912 1.61291 1.96875 1.6875 1.96875H3.19148L3.66188 4.55625L5.02664 12.0642C5.08956 12.4073 5.27776 12.7148 5.55469 12.927C5.26457 13.1139 5.03877 13.3854 4.90773 13.7047C4.7767 14.024 4.74672 14.3758 4.82186 14.7127C4.89699 15.0496 5.07362 15.3553 5.32793 15.5887C5.58223 15.8221 5.90198 15.9718 6.24405 16.0178C6.58613 16.0638 6.93408 16.0038 7.24099 15.8459C7.5479 15.6879 7.799 15.4397 7.96043 15.1346C8.12187 14.8296 8.18587 14.4823 8.14382 14.1397C8.10176 13.7972 7.95567 13.4757 7.72523 13.2188H11.9623C11.7046 13.5068 11.5537 13.8745 11.5346 14.2605C11.5155 14.6464 11.6295 15.0273 11.8575 15.3393C12.0855 15.6513 12.4136 15.8756 12.7871 15.9748C13.1606 16.0739 13.5569 16.0419 13.9096 15.884C14.2623 15.7261 14.5501 15.4519 14.7249 15.1073C14.8998 14.7626 14.9511 14.3685 14.8702 13.9906C14.7893 13.6127 14.5812 13.274 14.2806 13.0312C13.98 12.7883 13.6052 12.656 13.2188 12.6562H6.41039C6.21291 12.6562 6.02171 12.5868 5.87011 12.4602C5.7185 12.3337 5.61609 12.158 5.5807 11.9637L5.29945 10.4062H13.7883C14.1176 10.4063 14.4365 10.2908 14.6894 10.0798C14.9423 9.86878 15.1131 9.57574 15.172 9.25172L16.027 4.55063C16.0344 4.51005 16.0327 4.46836 16.0221 4.4285C16.0115 4.38865 15.9923 4.35161 15.9659 4.32ZM7.59375 14.3438C7.59375 14.5663 7.52777 14.7838 7.40415 14.9688C7.28054 15.1538 7.10484 15.298 6.89927 15.3831C6.6937 15.4683 6.4675 15.4905 6.24927 15.4471C6.03104 15.4037 5.83059 15.2966 5.67326 15.1392C5.51592 14.9819 5.40877 14.7815 5.36537 14.5632C5.32196 14.345 5.34424 14.1188 5.42939 13.9132C5.51453 13.7077 5.65873 13.532 5.84373 13.4083C6.02874 13.2847 6.24625 13.2188 6.46875 13.2188C6.76712 13.2188 7.05327 13.3373 7.26424 13.5483C7.47522 13.7592 7.59375 14.0454 7.59375 14.3438ZM14.3438 14.3438C14.3438 14.5663 14.2778 14.7838 14.1542 14.9688C14.0305 15.1538 13.8548 15.298 13.6493 15.3831C13.4437 15.4683 13.2175 15.4905 12.9993 15.4471C12.781 15.4037 12.5806 15.2966 12.4233 15.1392C12.2659 14.9819 12.1588 14.7815 12.1154 14.5632C12.072 14.345 12.0942 14.1188 12.1794 13.9132C12.2645 13.7077 12.4087 13.532 12.5937 13.4083C12.7787 13.2847 12.9962 13.2188 13.2188 13.2188C13.5171 13.2188 13.8033 13.3373 14.0142 13.5483C14.2252 13.7592 14.3438 14.0454 14.3438 14.3438ZM14.6187 9.15117C14.5833 9.34558 14.4808 9.52139 14.329 9.64796C14.1772 9.77453 13.9859 9.84382 13.7883 9.84375H5.19469L4.2743 4.78125H15.4132L14.6187 9.15117Z" fill="#999999"/>
</svg>
