<svg width="20" height="20" viewBox="0 0 20 20" fill="none" xmlns="http://www.w3.org/2000/svg">
<path d="M12.512 13.8632L7.48866 11.5782M12.5937 6.31817L7.40699 9.14734M5.01283 13.174C5.37013 13.174 5.72394 13.1036 6.05404 12.9669C6.38415 12.8302 6.68409 12.6297 6.93675 12.3771C7.1894 12.1244 7.38981 11.8245 7.52655 11.4944C7.66328 11.1643 7.73366 10.8105 7.73366 10.4532C7.73366 10.0959 7.66328 9.74206 7.52655 9.41195C7.38981 9.08185 7.1894 8.7819 6.93675 8.52925C6.68409 8.2766 6.38415 8.07618 6.05404 7.93945C5.72394 7.80271 5.37013 7.73234 5.01283 7.73234C4.29122 7.73234 3.59916 8.019 3.08891 8.52925C2.57865 9.03951 2.29199 9.73156 2.29199 10.4532C2.29199 11.1748 2.57865 11.8668 3.08891 12.3771C3.59916 12.8873 4.29122 13.174 5.01283 13.174ZM14.9878 7.73317C15.3451 7.73317 15.6989 7.66279 16.029 7.52606C16.3592 7.38932 16.6591 7.18891 16.9117 6.93626C17.1644 6.6836 17.3648 6.38366 17.5015 6.05356C17.6383 5.72345 17.7087 5.36964 17.7087 5.01234C17.7087 4.65503 17.6383 4.30123 17.5015 3.97112C17.3648 3.64101 17.1644 3.34107 16.9117 3.08842C16.6591 2.83576 16.3592 2.63535 16.029 2.49861C15.6989 2.36188 15.3451 2.2915 14.9878 2.2915C14.2662 2.2915 13.5742 2.57816 13.0639 3.08842C12.5537 3.59867 12.267 4.29073 12.267 5.01234C12.267 5.73395 12.5537 6.426 13.0639 6.93626C13.5742 7.44651 14.2662 7.73317 14.9878 7.73317ZM14.9878 17.7082C15.7094 17.7082 16.4015 17.4215 16.9117 16.9113C17.422 16.401 17.7087 15.7089 17.7087 14.9873C17.7087 14.2657 17.422 13.5737 16.9117 13.0634C16.4015 12.5532 15.7094 12.2665 14.9878 12.2665C14.2662 12.2665 13.5742 12.5532 13.0639 13.0634C12.5537 13.5737 12.267 14.2657 12.267 14.9873C12.267 15.7089 12.5537 16.401 13.0639 16.9113C13.5742 17.4215 14.2662 17.7082 14.9878 17.7082Z" stroke="#CDCDCD" stroke-width="1.5" stroke-linecap="round" stroke-linejoin="round"/>
</svg>
