<svg width="15" height="15" viewBox="0 0 15 15" fill="none" xmlns="http://www.w3.org/2000/svg">
<g clip-path="url(#clip0_54_5)">
<path d="M0 0.625H2.9775L3.31812 1.875H14.6169L12.3256 8.75H4.8625L4.55 10H13.75V11.25H2.95L3.72875 8.13187L2.0225 1.875H0V0.625ZM4.8525 7.5H11.4244L12.8831 3.125H3.65937L4.8525 7.5ZM2.5 13.125C2.5 12.7935 2.6317 12.4755 2.86612 12.2411C3.10054 12.0067 3.41848 11.875 3.75 11.875C4.08152 11.875 4.39946 12.0067 4.63388 12.2411C4.8683 12.4755 5 12.7935 5 13.125C5 13.4565 4.8683 13.7745 4.63388 14.0089C4.39946 14.2433 4.08152 14.375 3.75 14.375C3.41848 14.375 3.10054 14.2433 2.86612 14.0089C2.6317 13.7745 2.5 13.4565 2.5 13.125ZM11.25 13.125C11.25 12.7935 11.3817 12.4755 11.6161 12.2411C11.8505 12.0067 12.1685 11.875 12.5 11.875C12.8315 11.875 13.1495 12.0067 13.3839 12.2411C13.6183 12.4755 13.75 12.7935 13.75 13.125C13.75 13.4565 13.6183 13.7745 13.3839 14.0089C13.1495 14.2433 12.8315 14.375 12.5 14.375C12.1685 14.375 11.8505 14.2433 11.6161 14.0089C11.3817 13.7745 11.25 13.4565 11.25 13.125Z" fill="#999999"/>
</g>
<defs>
<clipPath id="clip0_54_5">
<rect width="15" height="15" fill="white"/>
</clipPath>
</defs>
</svg>
